<?xml version="1.0" encoding="utf-8"?>
<!-- Generator: Adobe Illustrator 28.2.0, SVG Export Plug-In . SVG Version: 6.00 Build 0)  -->
<svg version="1.1" id="Capa_1" xmlns="http://www.w3.org/2000/svg" xmlns:xlink="http://www.w3.org/1999/xlink" x="0px" y="0px"
	 viewBox="0 0 1920 1080" style="enable-background:new 0 0 1920 1080;" xml:space="preserve">
<g>
	<path d="M977.64,699.56c5.16-12.81,9.52-25.8,12.57-39.21c4.55-20.04,6.94-40.37,6.82-60.92c-0.12-20.15,0.51-40.32-0.8-60.46
		c-0.07-1.16,0.13-2.33,0.07-3.49c-0.17-3.7,2.27-7.34-0.03-11.11c-4.2-6.89-11.97-14.98-16.82-17.23
		c-0.73,0.38-0.91,1.13-0.52,1.65c5.41,7.28,4.34,15.49,3.19,23.57c-2.78,19.58-8.72,38.22-17.37,56.61
		c-2.14-3.02-4.3-5.53-6.35-0.1c-4.93-7.69-7.52-15.8-10.14-23.85c-3.55-10.93-6.26-22.09-7.96-33.47
		c-1.26-8.37-1.46-16.57,4.11-23.56c-1.88-1.64-2.75-0.45-3.53,0.21c-2.04,1.71-4.08,3.45-5.89,5.39
		c-5.9,6.33-10.12,12.41-9.46,22.56c1.63,24.91-0.73,49.95,0.38,74.94c1.23,27.63,5.94,54.57,16.21,80.37
		c1.03,2.6,2.27,5.11,3.13,7.85c-4.51-4.67-7.64-10.29-10.54-16.02c-10.17-20.16-14.48-42.03-18.8-63.94
		c-6.16-31.17-4.97-62.65-4.72-94.12c0.04-5.58,1.56-8.98,7.6-10.84c6.26-1.93,10.29-7.7,14.95-12.2c0.61-0.59,1.1-1.33,0.71-2.22
		c-0.51-1.19-1.64-1.04-2.58-0.86c-6.85,1.34-13.45,2.69-18.98,7.9c-12.86,12.11-27.01,22.73-40.66,33.92
		c-1.16,0.95-2.28,1.95-3.48,2.85c-6.16,4.63-8.85,10.45-8.57,18.48c1.22,34.93,8.07,68.68,20.07,101.44
		c0.55,1.51,1.13,3.02,1.36,4.69c-3.73-4.41-6.45-9.42-8.93-14.53c-16.62-34.16-25.76-70.19-26.92-108.2
		c-0.04-1.33-0.03-2.67-0.04-4c-0.02-2.72,0.14-5.08,3.66-2.33c2.91,2.27,5.63,0.97,8.27-0.66c10.94-6.75,20.9-14.84,30.78-23.01
		c8.34-6.9,16.7-13.81,23.63-22.21c2.04-2.48,4.63-2.83,7.64-2.59c4.48,0.36,8.98,0.49,13.47,0.54c1.73,0.02,4.47,0.46,4.79-1.49
		c0.4-2.46-2.52-2.68-4.29-3.19c-8.28-2.42-16.74-3.39-25.06-0.58c-11.76,3.98-24.16,6.47-34.39,14.18
		c-1.41,1.06-2.86,0.43-4.24-0.24c-5.53-2.72-9.54-7.16-13.36-11.82c-1.13-1.37-0.6-2.8-0.26-4.27
		c3.95-17.03,8.06-34.01,12.97-50.79c5.2-17.79,14.76-33.3,26.06-47.94c-3.99,10.24-7.94,20.49-11.97,30.71
		c-8.25,20.92-10.68,42.85-11.42,65.09c-0.15,4.57,1.9,5.5,5.84,4.55c11.97-2.88,24.02-5.66,35.46-10.18
		c6.97-2.76,12.99-3.09,19.25,1.34c1.69,1.2,4.56,3.64,6.1,1.67c1.46-1.87-1.71-3.83-3.05-5.61c-1.97-2.62-4.71-3.54-7.94-3.2
		c-10.53,1.11-21.36-0.13-31.51,3.97c-1.36,0.55-2.19-0.29-3.1-1.03c-1.55-1.26-3.02-2.64-4.67-3.76c-3.54-2.43-4.52-5.15-3.46-9.69
		c5.84-25.06,13.27-49.49,25.77-72.15c0.47-0.85,1.01-1.67,2.49-2.21c-0.98,3.45-1.99,6.89-2.92,10.35c-1,3.69-1.97,7.39-2.88,11.11
		c-4.07,16.67-7.79,33.38-8.22,50.66c-0.1,3.99,0.84,5.76,5.05,5.74c8.98-0.05,18.01,0.81,26.88-1.2c3.47-0.78,6.14-0.28,7.99,3.08
		c0.71,1.28,1.95,2.26,2.9,3.42c2.69,3.31,5.17,5.58,8.27,0.16c0.97-1.7,3.36-2.58,5.53-4.14c0.15,3.91-3.45,6.49-2.36,10.16
		c2.45-0.3,2.59-2.7,4.09-3.62c3.83,4.79,3.83,4.79,7.66,0.02c1.38,1.04,1.73,3.16,4.02,3.94c0.29-3.8-1.7-6.54-2.98-10.1
		c3.4,1.02,5.92,2.58,7.57,5.28c1.36,2.24,2.65,2.83,4.47,0.57c0.31-0.38,0.88-0.59,1.1-1c4.4-7.94,11.14-8.58,19.29-7.14
		c6.01,1.06,12.3,0.43,18.45,0.75c4.51,0.24,6.39-1.09,6.25-6.16c-0.6-22.2-6-43.45-11.9-64.64c-0.78-2.81-1.58-5.61-2.02-8.54
		c5.95,8.55,10,18,13.8,27.56c6.29,15.81,10.64,32.2,14.56,48.74c1.18,4.98-1.22,7.43-4.58,9.93c-2.9,2.15-4.85,4.34-9.75,2.93
		c-10.21-2.93-21.07-2.96-31.71-2.62c-4.52,0.15-6.48,4.6-8.55,8.7c4.38,0.7,7.26-1.9,10.19-3.67c4.12-2.48,8.01-2.56,12.34-0.89
		c12.6,4.85,25.6,8.42,38.82,11.14c5.86,1.2,6.27,0.85,6.11-5.3c-0.67-25.51-4.82-50.29-15.19-73.83
		c-3.12-7.07-5.75-14.35-8.3-21.67c13.3,17.15,23.25,35.95,28.56,57.07c3.53,14.04,6.92,28.1,10.6,42.1
		c0.64,2.44,0.32,4.2-1.25,5.89c-2.04,2.19-3.99,4.49-6.25,6.44c-6.21,5.36-7.35,5.16-14.53,1.46c-11.29-5.82-23.26-10.1-35.7-12.49
		c-7.17-1.38-14.62-0.37-21.57,2.43c-1.09,0.44-2.9,0.8-2.46,2.59c0.34,1.4,1.9,1.15,2.99,1.22c4.99,0.34,10.02,0.52,14.97-0.25
		c3.93-0.61,6.66,0.8,9.21,3.63c15.49,17.21,33.96,30.85,52.92,43.9c2.8,1.93,5.76,2.82,8.83,0.74c3.37-2.29,3.51-0.13,3.5,2.37
		c-0.02,9.01-1.04,17.95-1.92,26.9c-3.38,34.15-14.45,65.83-30.75,95.82c-0.63,1.16-1.4,2.26-2.15,3.35c-0.16,0.24-0.5,0.35-1.3,0.9
		c2.22-6.76,4.25-13.04,6.33-19.29c9.73-29.3,14.7-59.38,15.08-90.25c0.06-5.26-1.64-9.34-5.64-12.66
		c-15.5-12.88-31.2-25.53-46.32-38.85c-5.77-5.08-12.14-7.23-19.3-8.3c-0.95-0.14-2.21-0.55-2.78,0.37
		c-0.79,1.27,0.42,2.12,1.23,2.92c5.55,5.47,10.49,11.74,18.66,13.66c2.68,0.63,2.93,2.87,3.04,5.1
		c1.97,40.06,0.89,79.89-8.63,119.14c-4.89,20.17-10.85,39.84-23.1,56.99C978.85,698.12,978.23,698.83,977.64,699.56z"/>
</g>
</svg>
