<?xml version="1.0" encoding="utf-8"?>
<!-- Generator: Adobe Illustrator 28.2.0, SVG Export Plug-In . SVG Version: 6.00 Build 0)  -->
<svg version="1.1" id="Capa_1" xmlns="http://www.w3.org/2000/svg" xmlns:xlink="http://www.w3.org/1999/xlink" x="0px" y="0px"
	 viewBox="0 0 595.28 841.89" style="enable-background:new 0 0 595.28 841.89;" xml:space="preserve">
<style type="text/css">
	.st0{fill:#9F1915;stroke:#000000;stroke-width:4;stroke-miterlimit:10;}
</style>
<path class="st0" d="M338.22,363.49c21.3-13.47,35.46-37.23,35.46-64.3c0-42-34.04-76.04-76.04-76.04s-76.04,34.04-76.04,76.04
	c0,27.07,14.16,50.82,35.46,64.3l-80.09,46.24v139.34l120.67,69.67l120.67-69.67V409.73L338.22,363.49z"/>
<polygon class="st0" points="152.17,618.74 152.17,402.04 206.33,361.42 206.33,290.58 160.5,247.88 158.42,149.96 130.29,123.92 
	130.29,269.75 176.97,301 176.97,358.29 107.38,402.04 107.38,713.5 "/>
<polygon class="st0" points="90.71,736.42 90.71,397.88 156.85,348.92 156.85,316.62 107.38,283.29 107.38,105.17 69.88,73.92 
	76.12,304.12 128.21,321.83 126.12,343.71 43.83,405.17 43.83,809.33 "/>
<polygon class="st0" points="443.88,618.74 443.88,402.04 389.71,361.42 389.71,290.58 435.54,247.88 437.62,149.96 465.75,123.92 
	465.75,269.75 419.07,301 419.07,358.29 488.67,402.04 488.67,713.5 "/>
<polygon class="st0" points="505.33,736.42 505.33,397.88 439.19,348.92 439.19,316.62 488.67,283.29 488.67,105.17 526.17,73.92 
	519.92,304.12 467.83,321.83 469.92,343.71 552.21,405.17 552.21,809.33 "/>
</svg>
